<svg xmlns="http://www.w3.org/2000/svg" baseProfile="full" version="1.1" width="705px" height="480px" style="fill: none; width: 705px; height: 480px;"><path d="" style="stroke-width: 15; stroke-linecap: round; stroke-linejoin: round; stroke: rgb(106, 106, 106); fill: none;"/><path d="" style="stroke-width: 15; stroke-linecap: round; stroke-linejoin: round; stroke: rgb(74, 74, 74); fill: none;"/><path d="M195,60 L195,60 L195,60 A60,30 0 0,1 255,30 A60,30 0 0,1 315,60 L300,60 A60,30 0 0,1 240,90 A45,30 0 0,1 195,60 M435,60 L450,60 A60,30 0 0,0 510,90 A45,30 0 0,0 555,60 A60,30 0 0,0 495,30 A60,30 0 0,0 435,60 M225,45 A30,15 0 0,1 255,30 A30,15 0 0,1 285,45 A30,30 0 0,1 255,75 A30,30 0 0,1 225,45 M465,45 A30,15 0 0,1 495,30 A30,15 0 0,1 525,45 A30,30 0 0,1 495,75 A30,30 0 0,1 465,45 M345,315 A30,15 0 0,1 375,330 A30,15 0 0,1 405,315 M270,345 Q330,315 345,315 M465,345 M285,345 Q375,360 465,345 M285,345 Q375,420 465,345 M480,345 Q420,315 405,315 M330,255 L330,255 L345,225 M420,255 L420,255 L405,225 A15,30 0 0,1 420,255 M330,255 A15,30 0 0,1 345,225 " style="stroke-width: 12; stroke-linecap: round; stroke-linejoin: round; stroke: rgb(10, 10, 10); fill: none;"/></svg>