<svg height="224" width="800" xmlns="http://www.w3.org/2000/svg">
    <style>line, path, circle,rect,polygon {
          stroke: #98a3ad;
          stroke-width: 3;
          stroke-opacity: 1;
          fill-opacity: 0;
          stroke-linecap: round;
          stroke-linejoin: miter;
        }
        
        .text {
            stroke: white;
        }
        
    </style>
    <defs>
        <marker id="arrow" markerHeight="7" markerWidth="7" orient="auto-start-reverse" refX="4" refY="2" viewBox="-2 -2 8 8">
            <polygon points="0,0 0,4 4,2 0,0"></polygon>
        </marker>
        <marker id="diamond" markerHeight="7" markerWidth="7" orient="auto-start-reverse" refX="4" refY="2" viewBox="-2 -2 8 8">
            <polygon points="0,2 2,0 4,2 2,4 0,2"></polygon>
        </marker>
        <marker id="circle" markerHeight="7" markerWidth="7" orient="auto-start-reverse" refX="4" refY="4" viewBox="0 0 8 8">
            <circle class="filled" cx="4" cy="4" r="2"></circle>
        </marker>
        <marker id="open_circle" markerHeight="7" markerWidth="7" orient="auto-start-reverse" refX="4" refY="4" viewBox="0 0 8 8">
            <circle class="bg_filled" cx="4" cy="4" r="2"></circle>
        </marker>
        <marker id="big_open_circle" markerHeight="7" markerWidth="7" orient="auto-start-reverse" refX="4" refY="4" viewBox="0 0 8 8">
            <circle class="bg_filled" cx="4" cy="4" r="3"></circle>
        </marker>
    </defs>
    <circle class="nofill " cx="388" cy="104" r="80"></circle>
    <circle class="nofill " cx="672" cy="104" r="4"></circle>
    <line class="solid " x1="644" x2="680" y1="8" y2="80"></line>
    <path class="nofill " d="M 656,96 A 16,16 0,0,0 656,112"></path>
    <line class="text " x1="564" x2="564" y1="112" y2="160"></line>
    <line class="text " x1="484" x2="484" y1="112" y2="160"></line>
    <path class="nofill " d="M 688,96 A 16,16 0,0,1 688,112"></path>
    <line class="text " x1="740" x2="740" y1="128" y2="160"></line>
    <line class="solid " x1="576" x2="568" y1="176" y2="192"></line>
    <line class="solid " x1="656" x2="640" y1="176" y2="208"></line>
    <g>
        <line class="solid" x1="124" x2="104" y1="8" y2="48"></line>
        <line class="solid" x1="104" x2="80" y1="48" y2="96"></line>
        <path class="nofill" d="M 80,96 A 16,16 0,0,0 80,112"></path>
        <line class="solid" x1="80" x2="128" y1="112" y2="208"></line>
    </g>
    <g>
        <line class="solid" x1="44" x2="8" y1="24" y2="96"></line>
        <path class="nofill" d="M 8,96 A 16,16 0,0,0 8,112"></path>
        <line class="solid" x1="8" x2="32" y1="112" y2="160"></line>
        <line class="solid" x1="32" x2="52" y1="160" y2="200"></line>
    </g>
    <g>
        <line class="solid" x1="388" x2="388" y1="44" y2="104"></line>
        <line class="solid" x1="376" x2="388" y1="48" y2="72"></line>
        <line class="solid" x1="400" x2="388" y1="48" y2="72"></line>
        <line class="solid" x1="320" x2="456" y1="104" y2="104"></line>
        <line class="solid" x1="388" x2="368" y1="104" y2="144"></line>
        <line class="solid" x1="388" x2="408" y1="104" y2="144"></line>
        <line class="solid" x1="368" x2="408" y1="144" y2="144"></line>
        <line class="solid" x1="368" x2="360" y1="144" y2="160"></line>
        <line class="solid" x1="408" x2="416" y1="144" y2="160"></line>
    </g>
    <g>
        <line class="solid" x1="348" x2="368" y1="56" y2="96"></line>
        <path class="nofill" d="M 368,96 A 16,16 0,0,1 368,112"></path>
        <line class="solid" x1="368" x2="352" y1="112" y2="144"></line>
    </g>
    <g>
        <line class="solid" x1="428" x2="408" y1="56" y2="96"></line>
        <path class="nofill" d="M 408,96 A 16,16 0,0,0 408,112"></path>
        <line class="solid" x1="408" x2="424" y1="112" y2="144"></line>
    </g>
    <g>
        <line class="solid" x1="332" x2="344" y1="72" y2="96"></line>
        <path class="nofill" d="M 344,96 A 16,16 0,0,1 344,112"></path>
        <line class="solid" x1="344" x2="336" y1="112" y2="128"></line>
    </g>
    <g>
        <line class="solid" x1="444" x2="432" y1="72" y2="96"></line>
        <path class="nofill" d="M 432,96 A 16,16 0,0,0 432,112"></path>
        <line class="solid" x1="432" x2="440" y1="112" y2="128"></line>
    </g>
    <g>
        <line class="solid" x1="724" x2="760" y1="24" y2="96"></line>
        <path class="nofill" d="M 760,96 A 16,16 0,0,1 760,112"></path>
        <line class="solid" x1="760" x2="752" y1="112" y2="128"></line>
    </g>
    <g>
        <line class="text" x1="768" x2="784" y1="128" y2="128"></line>
        <line class="text" x1="768" x2="760" y1="128" y2="144"></line>
        <path class="text" d="M 784,128 A 16,16 0,0,1 784,144"></path>
        <path class="text" d="M 760,144 A 16,16 0,0,0 760,160"></path>
        <line class="text" x1="760" x2="776" y1="160" y2="160"></line>
        <line class="text" x1="784" x2="776" y1="144" y2="160"></line>
    </g>
    <g>
        <line class="solid" x1="192" x2="168" y1="32" y2="80"></line>
        <line class="solid" x1="168" x2="160" y1="80" y2="96"></line>
        <path class="nofill" d="M 160,96 A 16,16 0,0,0 160,112"></path>
        <line class="solid" x1="160" x2="196" y1="112" y2="184"></line>
    </g>
    <g>
        <line class="solid" x1="576" x2="600" y1="32" y2="80"></line>
        <line class="solid" x1="600" x2="608" y1="80" y2="96"></line>
        <path class="nofill" d="M 608,96 A 16,16 0,0,1 608,112"></path>
    </g>
    <g>
        <line class="text" x1="584" x2="600" y1="112" y2="112"></line>
        <path class="text" d="M 584,112 A 16,16 0,0,0 584,128"></path>
        <line class="text" x1="584" x2="600" y1="128" y2="128"></line>
        <path class="text" d="M 600,128 A 16,16 0,0,1 600,144"></path>
        <line class="text" x1="584" x2="592" y1="160" y2="160"></line>
        <line class="text" x1="600" x2="592" y1="144" y2="160"></line>
    </g>
    <g>
        <line class="text" x1="620" x2="640" y1="112" y2="112"></line>
        <line class="text" x1="620" x2="620" y1="112" y2="160"></line>
        <path class="text" d="M 640,112 A 16,16 0,0,1 640,128"></path>
        <line class="text" x1="640" x2="628" y1="128" y2="152"></line>
        <line class="text" x1="628" x2="632" y1="152" y2="152"></line>
        <line class="text" x1="632" x2="640" y1="152" y2="160"></line>
        <line class="text" x1="640" x2="648" y1="160" y2="160"></line>
    </g>
    <g>
        <line class="solid" x1="244" x2="224" y1="56" y2="96"></line>
        <path class="nofill" d="M 224,96 A 16,16 0,0,0 224,112"></path>
        <line class="solid" x1="224" x2="248" y1="112" y2="160"></line>
    </g>
    <g>
        <line class="solid" x1="532" x2="552" y1="56" y2="96"></line>
        <path class="nofill" d="M 552,96 A 16,16 0,0,1 552,112"></path>
    </g>
    <g>
        <line class="text" x1="524" x2="544" y1="112" y2="112"></line>
        <line class="text" x1="524" x2="524" y1="112" y2="160"></line>
        <path class="text" d="M 544,112 A 16,16 0,0,1 544,128"></path>
        <line class="text" x1="544" x2="532" y1="128" y2="152"></line>
        <line class="text" x1="532" x2="536" y1="152" y2="152"></line>
        <line class="text" x1="536" x2="544" y1="152" y2="160"></line>
        <line class="text" x1="544" x2="552" y1="160" y2="160"></line>
    </g>
    <g>
        <line class="solid" x1="288" x2="280" y1="80" y2="96"></line>
        <path class="nofill" d="M 280,96 A 16,16 0,0,0 280,112"></path>
        <line class="solid" x1="280" x2="288" y1="112" y2="128"></line>
    </g>
    <g>
        <line class="solid" x1="488" x2="496" y1="80" y2="96"></line>
        <path class="nofill" d="M 496,96 A 16,16 0,0,1 496,112"></path>
    </g>
    <g>
        <line class="text" x1="512" x2="492" y1="112" y2="152"></line>
        <line class="text" x1="492" x2="496" y1="152" y2="152"></line>
        <line class="text" x1="496" x2="504" y1="152" y2="160"></line>
        <line class="text" x1="504" x2="512" y1="160" y2="160"></line>
    </g>
    <g>
        <line class="text" x1="700" x2="712" y1="128" y2="128"></line>
        <line class="text" x1="700" x2="700" y1="128" y2="160"></line>
        <line class="text" x1="712" x2="720" y1="128" y2="144"></line>
        <line class="text" x1="700" x2="720" y1="160" y2="160"></line>
        <path class="text" d="M 720,144 A 16,16 0,0,1 720,160"></path>
    </g>
    <g>
        <line class="solid" x1="732" x2="720" y1="168" y2="192"></line>
        <line class="solid" x1="720" x2="716" y1="192" y2="200"></line>
    </g>
    <g>
        <line class="text" x1="672" x2="656" y1="128" y2="160"></line>
        <line class="text" x1="672" x2="688" y1="128" y2="160"></line>
        <line class="text" x1="660" x2="684" y1="152" y2="152"></line>
    </g>
</svg>